PathFileType	4	(X/Y/Z)	C:\Users\Basilio\Documents\Thesis Gigler\squatting_fais\c3dfiles\076\SLS_back_pre3\markers_experimental.trc
DataRate	CameraRate	NumFrames	NumMarkers	Units	OrigDataRate	OrigDataStartFrame	OrigNumFrames
200.000000	200.000000	4	61	mm	200.000000	0	1772
Frame#	Time	FHD			LBHD			RBHD			C7			T10			CLAV			LSHO			LUUPA			LMUPA			LDUPA			LLEP			LMEP			LRAD			LUL			LRFIN			RSHO			RUPA1			RMUPA			RDUPA			RLEP			RMEP			RRAD			RUL			RUFIN			LASI			RASI			USACR			LSACR			RSACR			LTHI1			LTHI2			LTHI3			LTHI4			LLFC			LMFC			LTIB1			LTIB2			LTIB3			LTIB4			LLMAL			LMMAL			LHEE			LMT1			LMT2			LMT5			RTHI			RTHI2			RTHI3			RTHI4			RLFC			RMFC			RTIB1			RTIB2			RTIB3			RTIB4			RLMAL			RMMAL			RHEE			RMT1			RMT2			RMT5			
		X1	Y1	Z1	X2	Y2	Z2	X3	Y3	Z3	X4	Y4	Z4	X5	Y5	Z5	X6	Y6	Z6	X7	Y7	Z7	X8	Y8	Z8	X9	Y9	Z9	X10	Y10	Z10	X11	Y11	Z11	X12	Y12	Z12	X13	Y13	Z13	X14	Y14	Z14	X15	Y15	Z15	X16	Y16	Z16	X17	Y17	Z17	X18	Y18	Z18	X19	Y19	Z19	X20	Y20	Z20	X21	Y21	Z21	X22	Y22	Z22	X23	Y23	Z23	X24	Y24	Z24	X25	Y25	Z25	X26	Y26	Z26	X27	Y27	Z27	X28	Y28	Z28	X29	Y29	Z29	X30	Y30	Z30	X31	Y31	Z31	X32	Y32	Z32	X33	Y33	Z33	X34	Y34	Z34	X35	Y35	Z35	X36	Y36	Z36	X37	Y37	Z37	X38	Y38	Z38	X39	Y39	Z39	X40	Y40	Z40	X41	Y41	Z41	X42	Y42	Z42	X43	Y43	Z43	X44	Y44	Z44	X45	Y45	Z45	X46	Y46	Z46	X47	Y47	Z47	X48	Y48	Z48	X49	Y49	Z49	X50	Y50	Z50	X51	Y51	Z51	X52	Y52	Z52	X53	Y53	Z53	X54	Y54	Z54	X55	Y55	Z55	X56	Y56	Z56	X57	Y57	Z57	X58	Y58	Z58	X59	Y59	Z59	X60	Y60	Z60	X61	Y61	Z61	

1	0	-171.2821960449219	1640.95166015625	-886.9250488281252	-286.4631652832032	1566.610595703125	-1009.046936035156	-306.0328063964844	1576.303833007813	-859.0281372070315	-349.2481384277344	1450.384033203125	-928.5350341796877	-375.1658325195313	1130.541381835938	-926.1723632812502	-216.8627624511719	1371.384399414063	-921.1070556640627	-291.1086425781251	1401.8671875	-1095.032592773438	-308.0003356933594	1256.663208007813	-1228.708740234375	-289.9379577636719	1212.08056640625	-1214.612670898438	-316.4824218750001	1200.511962890625	-1268.709350585938	-327.8248596191407	1151.450317382813	-1297.311401367188	-406.8218383789064	1136.429077148438	-1257.833129882813	-303.7864074707032	1005.994445800781	-1107.225830078125	-260.3252563476563	971.9182739257815	-1139.966796875	-256.6717224121094	1030.061645507813	-1088.291259765625	-305.9761352539063	1392.757446289063	-764.8225708007814	-366.5425415039063	1265.83349609375	-626.6890258789064	-333.7402343750001	1228.45947265625	-618.9176025390626	-380.0048522949219	1210.354125976563	-584.0684814453126	-373.6438903808594	1141.127075195313	-557.8063354492189	-438.7387695312501	1121.429077148438	-617.3317871093751	-312.1261596679688	1010.109558105469	-749.6121215820314	-260.0558166503907	1035.858520507813	-755.0538940429689	-267.3914489746094	980.4851074218752	-708.2809448242189	-220.1113433837891	944.6655273437502	-1035.463989257813	-212.4627380371094	939.4128417968752	-822.2444458007815	-379.9573974609376	1026.192749023438	-920.739196777344	-389.1826477050782	997.762878417969	-948.765808105469	-386.3868713378907	996.3228759765627	-892.3828125000002	-314.2816772460938	797.438171386719	-1098.955322265625	-296.5866088867188	714.9362792968751	-1096.456909179688	-248.136947631836	711.9002075195314	-1085.254150390625	-332.2909851074219	667.3438720703126	-1083.155029296875	-351.6857910156251	507.3349609375001	-1058.4521484375	-316.4249877929688	497.0334777832032	-944.6511230468752	-320.4037475585938	362.4786071777344	-995.7668457031252	-345.2670898437501	311.7446594238282	-1064.16259765625	-316.2114868164063	313.6656494140626	-1028.5576171875	-328.6414489746094	234.6701965332032	-998.2606201171877	-386.2901306152345	110.0003051757813	-1052.620361328125	-356.2013854980469	120.2429504394532	-973.8721313476565	-443.0088195800782	97.3313903808594	-1006.817321777344	-240.7410736083985	53.5781707763672	-993.7764892578127	-235.7884368896485	50.39965057373048	-1032.458251953125	-259.9119567871094	43.94876098632813	-1082.068481445313	-322.2289428710938	697.6520385742189	-761.2341918945314	-288.7880249023438	639.3228759765626	-756.6089477539064	-254.332504272461	639.8040161132814	-761.3666992187501	-318.1157531738282	563.9830322265626	-774.4353027343752	-324.3401184082032	503.559295654297	-781.3197021484377	-282.5483093261719	495.3884277343751	-893.2954101562502	-283.3621215820313	372.2642822265626	-794.154479980469	-353.5674438476563	290.8331604003907	-777.605895996094	-306.5155334472657	288.8469848632813	-781.0556640625002	-287.4294128417969	242.9898376464844	-811.6966552734377	-346.2187500000001	105.1739349365235	-787.0604248046877	-315.0535888671876	115.6732254028321	-867.1961669921877	-398.7750854492189	87.56639099121095	-833.3378906250002	-195.5876159667969	51.58113479614259	-838.9827270507815	-194.5426788330079	52.61287689208986	-794.073669433594	-227.1400299072266	35.8803939819336	-742.9627685546876	
2	0.005	-171.1959381103516	1640.960205078125	-886.954528808594	-286.3688964843751	1566.106689453125	-1008.736206054688	-305.9039306640626	1576.31982421875	-858.9649658203127	-349.2056884765626	1450.404541015625	-928.5078735351565	-375.0879211425782	1130.570434570313	-926.2327270507815	-216.8583526611329	1371.442138671875	-921.0899047851565	-291.3974609375001	1401.91015625	-1094.93896484375	-307.9620361328126	1256.742431640625	-1228.733520507813	-289.8852844238282	1212.21435546875	-1214.5859375	-316.3641052246094	1200.590454101563	-1268.725219726563	-327.6625976562501	1151.48974609375	-1297.326171875	-406.7265930175782	1136.482421875	-1257.947021484375	-303.6634216308594	1006.005859375	-1107.265625	-260.2050476074219	971.9099731445315	-1139.950805664063	-256.5311889648438	1030.133544921875	-1088.2333984375	-306.1444702148438	1392.776977539063	-764.8812866210939	-366.7782897949219	1265.83447265625	-626.8156738281251	-333.9758605957032	1228.500854492188	-619.0092773437501	-380.2373046875001	1210.396362304688	-584.1868896484376	-373.8577575683594	1141.143188476563	-557.8756713867189	-438.8719787597657	1121.42724609375	-617.6038208007814	-312.0580444335938	1010.121765136719	-749.6318969726564	-260.0235595703126	1035.934936523438	-755.0485229492189	-267.3423767089844	980.5812988281252	-708.2652587890626	-220.0605621337891	944.6643676757815	-1035.392333984375	-212.459213256836	939.397399902344	-822.2422485351565	-379.9370422363282	1026.20263671875	-920.7293701171877	-389.1170043945314	997.775817871094	-948.7727050781252	-386.4007873535157	996.3906250000002	-892.3831787109377	-314.2991943359376	797.4656372070315	-1098.966430664063	-296.5748901367188	714.9308471679689	-1096.48583984375	-248.1432495117188	711.9119873046876	-1085.257080078125	-332.3148803710938	667.3291625976564	-1083.135498046875	-351.7300720214844	507.3601074218751	-1058.412231445313	-316.4037170410157	497.0293273925782	-944.623962402344	-320.3785705566407	362.5046691894532	-995.757507324219	-345.2642211914063	311.7392578125001	-1064.161010742188	-316.2040405273438	313.6682128906251	-1028.5283203125	-328.2254333496094	234.5221710205079	-997.9771728515627	-386.2873840332032	109.9892807006836	-1052.627319335938	-356.2370910644532	120.243034362793	-973.884704589844	-443.053192138672	97.36626434326175	-1006.817260742188	-240.7345428466797	53.56483078002931	-993.7764892578127	-235.7881774902344	50.39945602416994	-1032.458129882813	-259.9060058593751	43.94781494140626	-1082.114013671875	-322.2214050292969	697.6513671875001	-761.2498168945314	-288.7330017089844	639.3295898437501	-756.6002807617189	-254.3336334228516	639.8294067382814	-761.3674926757814	-318.1074829101563	563.9887084960939	-774.451843261719	-324.3879089355469	503.5467224121095	-781.3289794921877	-282.5250244140626	495.3743896484376	-893.2830810546877	-283.3738708496094	372.2481079101563	-794.170104980469	-353.5594177246094	290.8349304199219	-777.6262207031252	-306.5001220703126	288.8543395996094	-781.0515136718752	-287.4550170898438	242.9983673095704	-811.7006835937502	-346.2515563964844	105.1667633056641	-787.0473632812502	-315.0769958496094	115.6270141601563	-867.2150878906252	-398.7539672851564	87.5590057373047	-833.3513183593752	-195.6167144775391	51.56239318847658	-839.0296020507815	-194.4109191894532	52.50917816162111	-794.071960449219	-226.8765563964844	35.96512985229493	-742.7728271484376	
3	0.01	-171.0760040283203	1640.91796875	-886.9028930664065	-286.3095092773438	1566.226928710938	-1008.657836914063	-305.8300781250001	1576.333862304688	-858.8978271484377	-349.2013244628907	1450.412353515625	-928.4804687500002	-375.0529785156251	1130.6162109375	-926.2381591796877	-216.8363952636719	1371.456787109375	-921.0671997070315	-291.6243591308594	1401.965698242188	-1094.862182617188	-307.9470825195313	1256.809448242188	-1228.691162109375	-289.8119506835938	1212.322998046875	-1214.581176757813	-316.2189941406251	1200.626342773438	-1268.73095703125	-327.4484252929688	1151.554077148438	-1297.277465820313	-406.4617614746095	1136.379028320313	-1257.972412109375	-303.5615234375001	1006.01220703125	-1107.2314453125	-259.9609069824219	971.9919433593752	-1139.953369140625	-256.4142150878907	1030.166748046875	-1088.210571289063	-306.2715759277344	1392.814575195313	-764.9653930664064	-367.0228576660157	1265.8603515625	-626.9086914062501	-334.2059631347657	1228.554931640625	-619.0942382812501	-380.4848937988282	1210.431518554688	-584.2962036132814	-374.1013793945313	1141.182983398438	-558.0025024414064	-439.0054931640626	1121.470336914063	-617.8190307617189	-311.9619445800782	1010.183410644531	-749.6412963867189	-259.9550476074219	1036.014282226563	-755.0073242187501	-267.3091125488282	980.6596679687502	-708.2479248046876	-220.022689819336	944.6714477539065	-1035.395874023438	-212.402816772461	939.385437011719	-822.2197875976565	-379.9371032714844	1026.20263671875	-920.7293090820315	-389.1016845703126	997.8018798828127	-948.803405761719	-386.3091430664064	996.3969726562502	-892.4241333007815	-314.2588195800782	797.4688720703127	-1098.9501953125	-296.5613403320313	714.9215087890626	-1096.42919921875	-248.1241760253907	711.8764038085939	-1085.2509765625	-332.3738098144532	667.1135864257814	-1083.487670898438	-351.6767883300782	507.3330078125001	-1058.423583984375	-316.3866882324219	497.0540466308595	-944.6453247070315	-320.3852539062501	362.4617919921876	-995.7515869140627	-345.2323913574219	311.7366943359376	-1064.12060546875	-316.2295532226563	313.6751098632813	-1028.5302734375	-328.2495727539063	234.5069732666016	-997.9747314453127	-386.2591857910157	110.0079116821289	-1052.6103515625	-356.2459716796876	120.2286987304688	-973.871276855469	-443.0379028320314	97.34956359863284	-1006.817260742188	-240.7410736083985	53.57815551757814	-993.7764892578127	-235.8840789794922	50.35506057739259	-1032.460083007813	-259.8921813964844	43.95114898681641	-1082.092041015625	-322.1976928710938	697.6638183593751	-761.2415161132814	-288.7892456054688	639.3243408203126	-756.6082763671876	-254.3030242919922	639.7717285156251	-761.4053955078126	-318.1153259277344	564.0057983398439	-774.4332275390627	-324.3758544921876	503.5665283203126	-781.3266601562502	-282.5356140136719	495.3706359863282	-893.2880859375002	-283.3946838378907	372.2673034667969	-794.1345825195315	-353.5462341308594	290.8288574218751	-777.6235351562502	-306.5157165527344	288.8410339355469	-781.081481933594	-287.4600524902344	242.9889373779297	-811.7156982421877	-346.2205505371094	105.1491470336914	-787.038269042969	-315.0275268554688	115.6573715209961	-867.2070312500002	-398.7750854492189	87.56639099121095	-833.3378906250002	-195.6174011230469	51.5934410095215	-839.0059814453127	-194.4303283691407	52.50557327270509	-794.076354980469	-226.8858795166016	35.96133422851563	-742.8037109375001	
4	0.015	-170.9438781738282	1640.921752929688	-886.920837402344	-286.2795715332032	1566.17822265625	-1008.625732421875	-305.7026977539063	1576.317016601563	-858.9006347656252	-349.1674499511719	1450.439331054688	-928.4912719726565	-375.0424804687501	1130.61328125	-926.207214355469	-216.8435821533204	1371.456420898438	-921.0729980468752	-291.8475341796876	1402.037841796875	-1094.78759765625	-307.9924011230469	1256.900268554688	-1228.665161132813	-289.7833557128907	1212.419799804688	-1214.571655273438	-316.1638488769532	1200.71240234375	-1268.693359375	-327.2596130371094	1151.583129882813	-1297.247436523438	-406.304901123047	1136.31494140625	-1258.068237304688	-303.4717712402344	1006.0498046875	-1107.254150390625	-259.8104858398438	972.0196533203127	-1139.936279296875	-256.2843017578126	1030.19140625	-1088.16650390625	-306.3836364746094	1392.857421875	-765.0248413085939	-367.2561340332032	1265.895874023438	-627.0534057617189	-334.4325561523438	1228.576171875	-619.1887207031251	-380.7764587402344	1210.45849609375	-584.4036254882814	-374.3281250000001	1141.23486328125	-558.0977783203126	-439.2614746093751	1121.420532226563	-617.7818603515626	-311.9952087402344	1010.236755371094	-749.6503295898439	-259.9179077148438	1036.072631835938	-755.0097045898439	-267.2885131835938	980.7786865234377	-708.1768798828126	-220.0020446777344	944.6275634765627	-1035.3271484375	-212.3779296875001	939.3845214843752	-822.1800537109377	-379.8984985351563	1026.218139648438	-920.725280761719	-389.0409240722657	997.837097167969	-948.8123168945315	-386.2854614257814	996.399353027344	-892.3649902343752	-314.2295532226563	797.451599121094	-1098.946411132813	-296.5479736328126	714.8857421875001	-1096.400146484375	-248.0562591552735	711.8912963867189	-1085.18603515625	-332.3329162597657	667.0982055664064	-1083.50341796875	-351.7025756835938	507.3515930175782	-1058.409057617188	-316.3632202148438	497.0545349121095	-944.650085449219	-320.4038696289063	362.4563293457032	-995.7480468750002	-345.2366333007813	311.7362670898438	-1064.118286132813	-316.2363891601563	313.6389770507813	-1028.495361328125	-328.2268981933594	234.5008544921876	-997.970397949219	-386.2821655273439	109.9958114624024	-1052.604370117188	-356.2631835937501	120.2269287109375	-973.8951416015627	-443.0160217285157	97.31663513183597	-1006.814880371094	-240.7345428466797	53.56482696533205	-993.7764892578127	-235.8535461425782	50.34596252441408	-1032.508666992188	-259.9599914550782	43.95019531250001	-1082.082397460938	-322.2050781250001	697.6667480468751	-761.2207031250001	-288.7314453125001	639.3455200195314	-756.5958862304689	-254.280014038086	639.7723999023439	-761.3630981445314	-318.1236572265626	564.0036010742189	-774.4412231445315	-324.3956298828126	503.5610656738282	-781.339050292969	-282.5572204589844	495.3930969238282	-893.303405761719	-283.3828125000001	372.2830505371094	-794.1716308593752	-353.5972290039063	290.8498229980469	-777.6387329101565	-306.5253906250001	288.8370666503907	-781.0801391601565	-287.4692382812501	242.9924774169922	-811.7151489257815	-346.2457580566407	105.1635437011719	-787.045104980469	-315.0498962402344	115.652702331543	-867.2002563476565	-398.7539672851564	87.55897521972658	-833.3513183593752	-195.616195678711	51.55477523803712	-838.998962402344	-194.4152069091797	52.48638916015626	-794.0714111328127	-226.8771362304688	35.9608268737793	-742.7941894531251	
